<?xml version="1.0" encoding="utf-8"?>
<!-- Generator: Adobe Illustrator 19.0.0, SVG Export Plug-In . SVG Version: 6.00 Build 0)  -->
<svg version="1.1" id="Layer_1" xmlns="http://www.w3.org/2000/svg" xmlns:xlink="http://www.w3.org/1999/xlink" x="0px" y="0px"
	 viewBox="0 0 118.3 118.4" style="enable-background:new 0 0 118.3 118.4;" xml:space="preserve">
<style type="text/css">
	.st0{fill:#0054A6;}
</style>
<g>
	<g>
		<g>
			<g>
				<path class="st0" d="M104,51.6c-0.9-2.3-2.7-4.3-4.8-5.8c-6.3-4-15.8-4.3-22.3-0.7c-3.5,1.8-5.8,5.4-6.6,9
					c-1.3,6-1,13.2,3.7,17.7c5.4,4.7,13.3,5.8,20.3,3.8c0.3-0.1,1.4-0.3,2.1-0.7l0.2-0.1c2.2-0.9,4.2-2.4,5.8-4.4
					C105.9,65.3,106.1,57.5,104,51.6z M92.6,65.1c-0.2,1.1-1,2.3-2.2,2.8c-1.9,0.8-4.5,0.6-6.3-0.4c-1.5-1-1.7-2.8-1.9-4.5
					c-0.1-3.3-0.4-6.7,0.5-9.7c0.7-1.9,2.7-2.3,4.5-2.5c1.9,0,3.7,0.3,4.9,1.8c0.7,1.1,0.7,2.5,0.8,3.8
					C92.8,59.1,93.1,62.3,92.6,65.1z"/>
				<path class="st0" d="M35.4,68c-1.6-0.1-3.4,0-4.9-0.1l0-16.6l0.1-0.1l4.8,0c0.1-2.7,0.1-5.6-0.1-8.1L17.2,43l-3,0.1
					c0,2.5,0,5.4,0,8c1.6,0.1,3.2,0,4.8,0.1v16.1l0,0.7L14.2,68c-0.1,2.6-0.1,5.2,0,7.8h21.3V68z"/>
				<path class="st0" d="M89,79.4c-2,2.9-4.6,5.7-7.4,7.9c-0.1,0.1-0.4,0.1-0.5,0c-1.2-0.8-2.5-1.4-3.7-2.1c1.5-1.8,3-3.7,4.2-5.7
					h-1.5c-1.2,1.8-2.5,3.6-4,5.2c-2.1-0.9-4.1-1.6-6.2-2.2l-0.2-0.2c0.3-1,1-1.9,1.2-2.8h-1.3l-1.3,2.6c-2.8-0.6-6-0.9-8.9-1.1
					c-0.1-0.4,0-1-0.1-1.4h-1.3c-0.1,0.6,0.1,1-0.1,1.5c-3,0.1-5.9,0.5-8.7,1l-1.3-2.5c-0.5,0-1-0.1-1.3,0.1l1.2,2.8l-0.1,0.1
					c-2.2,0.6-4.3,1.4-6.4,2.2l-0.2-0.1c-1.4-1.5-2.7-3.1-3.7-4.7C37,79,36,79.4,35.5,79.4c1.2,2.1,2.7,3.9,4.2,5.8
					c-1.3,0.8-2.6,1.6-4,2.2c-2.9-2.2-5.6-5-7.6-8c-0.6-0.1-1-0.1-1.5,0c3.5,5.4,8.9,10.1,14.5,12.9c0,0,0,0,0.1,0
					c0,0,0.1,0.1,0,0.1c3.8,1.8,7.9,3.2,12.2,3.7c14.8,1.9,28.9-4.4,37.1-16.8C90.1,79.4,89.4,79.4,89,79.4z M68.9,83.7l0.1-0.1
					c2.1,0.5,4.1,1.1,5.9,2c-1.5,1.8-3.5,3.3-5.4,4.5c-1.1,0.7-2.2,1.4-3.4,1.9l-2.1-0.9l0.1-0.3C66,88.6,67.5,86.2,68.9,83.7z
					 M59.4,82.2c2.8,0.1,5.5,0.3,8.1,0.9l0,0.1c-1.3,2.6-3,5-4.9,7.3c-0.8,0.1-1.6-0.2-2.4-0.3l-0.8-0.1
					C59.3,87.5,59.2,85,59.4,82.2z M50,83.1c2.5-0.5,5.1-0.9,7.8-0.9l0.1,8c-1,0.2-2.1,0.2-3.1,0.5c-2-2.3-3.6-4.8-5-7.4L50,83.1z
					 M42.3,85.7c1.9-0.9,3.9-1.6,5.9-2.1l0.2,0c1.4,2.6,3.1,5.1,4.9,7.5c-0.7,0.4-1.5,0.6-2.2,1c-3.2-1.6-6.2-3.7-8.8-6.4V85.7z
					 M48.5,93.8c-4.1-1-7.8-2.8-11.3-5.3v-0.1c1.2-0.7,2.3-1.5,3.6-2c2.8,2.7,5.6,4.7,8.7,6.7C49.2,93.3,48.8,93.6,48.5,93.8z
					 M66.4,94.4c-5.1,1.1-10.8,1.1-15.9-0.1c-0.1-0.2,0.2-0.3,0.4-0.4c4.5-2.9,11.5-2.9,15.9,0.2C66.9,94.4,66.5,94.3,66.4,94.4z
					 M71,93.1l-2.3,0.7c-0.4-0.2-0.7-0.5-1.1-0.8l0.1-0.1c3.1-1.8,5.9-4,8.5-6.6c1.3,0.5,2.6,1.2,3.7,2C77.3,90.4,74.2,91.9,71,93.1
					z"/>
				<path class="st0" d="M28.1,39.4c1.2-1.6,2.5-3.2,3.9-4.7c1.3-1.2,2.4-2.3,3.8-3.2c1.3,0.8,2.7,1.5,3.9,2.2
					c-1.5,1.8-3,3.7-4.1,5.7c0.3,0.1,1,0.1,1.4,0c1.2-1.8,2.5-3.5,4.1-5.1c2.1,0.8,4.1,1.6,6.2,2.1l0.2,0.2l-1.2,2.7
					c0.5,0.1,0.9,0.1,1.4,0c0.4-0.8,0.8-1.7,1.3-2.5c2.8,0.6,5.7,0.9,8.7,1c0.4,0.3,0.1,1,0.2,1.5h1.3c0.1-0.5,0-1,0.1-1.4
					c2.8-0.1,5.7-0.4,8.4-1.1l0.2,0.1l1.3,2.5c0.4,0,1,0.1,1.4-0.1l-1.2-2.7l0.1-0.1c2.2-0.6,4.3-1.4,6.4-2.3
					c1.5,1.6,2.9,3.4,4.2,5.2c0.5,0,1.1,0.1,1.4-0.1c-0.6-1-1.3-2.1-2.1-3c-0.6-0.9-1.3-1.7-2.1-2.6v-0.2l3.4-1.9l0.5-0.2
					c2.9,2.2,5.5,4.9,7.6,7.9c0.6,0,1.1,0.2,1.5,0c-6.5-9.7-17.1-15.9-28.6-16.8l-0.1,0.1l-0.1-0.1c-1.3-0.1-2.9-0.2-4.3-0.1
					c-0.5,0-1.2,0-1.8,0.1c-11.6,0.9-22.2,6.8-28.9,16.9C27,39.4,27.6,39.6,28.1,39.4z M48.1,35.2l-0.2,0c-2-0.5-3.9-1.1-5.7-1.9
					l0.1-0.3c2.7-2.5,5.4-4.6,8.5-6.2c0.7,0.3,1.4,0.5,2.2,0.9L52.8,28C51,30.3,49.5,32.8,48.1,35.2z M57.7,36.5
					c-1.3,0.2-2.6,0-3.9-0.1c-1.3-0.2-2.9-0.3-4.2-0.8c1.4-2.6,3-5.1,5-7.4l3.1,0.4C57.8,31,57.7,33.9,57.7,36.5z M59.2,36.5
					c-0.1-2.5,0-5.3,0-7.9c1-0.1,2-0.3,3-0.4c1.9,2.4,3.7,4.8,5,7.4C64.5,36.2,61.9,36.5,59.2,36.5z M74.5,33.2
					c-1.9,0.8-3.8,1.6-5.9,2c-1.5-2.5-3.1-5-5-7.4c0.7-0.4,1.5-0.7,2.2-1c3.1,1.6,6.2,3.8,8.7,6.3L74.5,33.2z M68.4,25.1
					c4.1,1,7.9,2.8,11.3,5.3l-0.1,0.2l-3.3,1.8H76c-2.6-2.6-5.5-4.8-8.6-6.5C67.5,25.6,68,25.3,68.4,25.1z M66.4,24.6L66.4,24.6
					c-4.2,3.1-11,3.4-15.4,0.6c-0.2-0.2-0.7-0.3-0.8-0.6C55.3,23.4,61.4,23.3,66.4,24.6z M37,30.5c3-2.2,6.4-3.9,10-5
					c0.1-0.1,0.2-0.3,0.4-0.3v0.1c0.4,0.1,0.7-0.3,1-0.1c0.3,0.2,0.6,0.4,0.9,0.7c-3,1.8-5.9,4-8.6,6.7C39.4,32.1,38.2,31.4,37,30.5
					L37,30.5z"/>
				<path class="st0" d="M57.7,68.4c-4.5,1.2-9.5,0.3-12.7-3.1c-0.4-0.5-0.6-1-1-1.5l-6.5,0c-0.1,3.8-0.1,8.2,0,12l7.2,0l0.1-2.3
					c0.8,0.4,1.6,0.9,2.5,1.3c5,2.1,11.5,2.6,16.4,0c3.6-2,5.5-5.8,5-10c-0.5-4-4.4-7.7-8.3-8.7l-11.7-3.4l-0.9-0.4
					c-0.4-0.3-0.6-0.8-0.5-1.3c0.9-1.6,3-1.1,4.6-1c3.4,0.5,6.8,1.6,8.8,4.7c2.1,0,4.6,0,6.9-0.1c0.1-3.9,0-7.3-0.1-11.2
					c-2.2-0.1-4.8-0.1-7,0.1c-0.1,0.6,0.1,1.4-0.1,1.9l-2.2-1.2c-5.3-2.2-12.7-2.5-17.6,1c-3.1,2.3-4.1,6.4-3.3,9.9
					c0.6,3.4,3.9,5.9,7,7.1c4.3,1.5,8.8,2.6,13.1,4.1c0.4,0.2,1,0.6,0.9,1.1C58.5,68,58,68.2,57.7,68.4z"/>
			</g>
			<g>
				<path class="st0" d="M12.1,79.3l0.2,0.5c0,0.1,0,0.2-0.1,0.3l-6.9,3c-0.1,0-0.2,0-0.3-0.1l-0.2-0.5c0-0.1,0-0.2,0.1-0.3l7-3
					C12,79.2,12.1,79.2,12.1,79.3z"/>
				<path class="st0" d="M10.1,73.7l0.2,0.5c0,0.1,0,0.2-0.1,0.3l-3.4,1.1c-1,0.3-1.2,0.8-1,1.6c0.1,0.4,0.5,0.9,0.9,1.2l4.3-1.5
					c0.1,0,0.2,0,0.3,0.1l0.2,0.5c0,0.1,0,0.2-0.1,0.3L6,79.6c-0.1,0-0.2,0-0.3-0.1L5.6,79c0-0.1,0-0.2,0.1-0.3l0.2-0.1
					c-0.5-0.5-0.8-0.9-1-1.5c-0.4-1.2,0.2-2,1.5-2.5l3.4-1.1C9.9,73.5,10,73.6,10.1,73.7z"/>
				<path class="st0" d="M9.1,69.7c0.1,0.2,0.2,0.5,0.2,0.7c0.2,1,0.1,1.5-1.1,1.8L4.6,73l0.1,1c0,0.1,0,0.2-0.1,0.2l-0.3,0.1
					c-0.1,0-0.2,0-0.2-0.2l-0.2-1l-1,0.2c-0.1,0-0.2,0-0.3-0.1l-0.2-0.5c0,0,0,0,0,0c0-0.1,0-0.2,0.1-0.2l1.1-0.3l-0.3-1.1
					c0-0.1,0-0.2,0.2-0.3l0.4-0.1c0.1,0,0.2,0,0.3,0.2l0.3,1.1L8,71.2c0.6-0.1,0.6-0.3,0.5-0.7l-0.1-0.6c0-0.1,0-0.2,0.1-0.3
					l0.4-0.1C9,69.5,9.1,69.6,9.1,69.7z"/>
				<path class="st0" d="M5.7,64.9l0.5,3.6l0.2,0c1.3-0.2,1.7-0.7,1.5-1.7c-0.1-0.6-0.2-1.4-0.4-1.9c0,0,0,0,0-0.1
					c0-0.1,0-0.2,0.1-0.2l0.4-0.1c0.1,0,0.2,0,0.3,0.2c0.2,0.6,0.3,1.2,0.4,1.9c0.2,1.2-0.2,2.5-2.2,2.8l-1,0.1
					c-1.5,0.2-2.6-0.5-2.8-2c-0.2-1.6,0.7-2.5,2.2-2.7l0.6-0.1C5.5,64.7,5.7,64.7,5.7,64.9z M5,65.7c-1.2,0.2-1.6,0.7-1.5,1.6
					c0.1,0.9,0.7,1.4,1.9,1.2l0.1,0L5,65.7L5,65.7z"/>
				<path class="st0" d="M2.9,61.1c0,0.5,0.2,0.9,0.5,1.5L8,62.4c0.1,0,0.2,0.1,0.2,0.2l0,0.5c0,0.1-0.1,0.2-0.2,0.2l-5.5,0.3
					c-0.1,0-0.2-0.1-0.2-0.2l0-0.5c0-0.1,0.1-0.2,0.2-0.2l0.2,0c-0.4-0.5-0.6-1-0.6-1.5c0-0.2,0.1-0.2,0.2-0.2l0.4,0
					C2.9,60.9,2.9,61,2.9,61.1z"/>
				<path class="st0" d="M8.2,55.5l0,0.5c0,0.1-0.1,0.2-0.2,0.2l-3.5-0.1c-1.1,0-1.4,0.3-1.5,1.1c0,0.4,0.1,1,0.4,1.5l4.5,0.2
					c0.1,0,0.2,0.1,0.2,0.2l0,0.5c0,0.1-0.1,0.2-0.2,0.2l-5.5-0.2c-0.1,0-0.2-0.1-0.2-0.2l0-0.5c0-0.1,0.1-0.2,0.2-0.2l0.2,0
					c-0.3-0.6-0.4-1.1-0.4-1.7c0.1-1.3,0.9-1.8,2.3-1.8L8,55.3C8.1,55.3,8.2,55.4,8.2,55.5z"/>
				<path class="st0" d="M8.9,50.3l-0.1,0.5c0,0.1-0.1,0.2-0.2,0.2l-0.2,0c0.2,0.6,0.4,1.1,0.3,1.7c-0.1,0.9-0.7,1.7-2,1.5l-0.1,0
					c-1.1-0.2-1.6-0.9-1.3-2.8l0.1-0.8l-0.4-0.1c-0.9-0.1-1.2,0.1-1.4,1c-0.1,0.7-0.1,1.2-0.2,1.6c0,0,0,0,0,0.1
					c0,0.1-0.1,0.2-0.2,0.2l-0.4-0.1c-0.1,0-0.2-0.1-0.2-0.3c0-0.4,0-0.9,0.1-1.7c0.2-1.5,1-2,2.3-1.8L8.8,50
					C8.9,50.1,9,50.2,8.9,50.3z M6,50.6l-0.1,0.8c-0.2,1.3,0,1.7,0.8,1.8l0.1,0c0.8,0.1,1-0.2,1.1-0.8c0.1-0.5,0-0.9-0.2-1.5L6,50.6
					z"/>
				<path class="st0" d="M9.9,46.3c0,0.2-0.1,0.5-0.1,0.7c-0.2,1-0.6,1.4-1.7,1.1l-3.7-0.9l-0.4,1c0,0.1-0.1,0.2-0.2,0.2l-0.3-0.1
					c-0.1,0-0.2-0.1-0.1-0.2l0.2-1l-1-0.2c-0.1,0-0.2-0.1-0.2-0.2l0-0.6c0,0,0,0,0,0c0-0.1,0.1-0.1,0.2-0.1l1.1,0.3L4.1,45
					c0-0.1,0.1-0.2,0.3-0.2l0.4,0.1c0.1,0,0.2,0.1,0.2,0.3l-0.3,1.1l3.6,0.9c0.6,0.1,0.7,0,0.8-0.4l0.1-0.6C9.2,46,9.3,46,9.4,46
					l0.4,0.1C9.8,46.1,9.9,46.2,9.9,46.3z"/>
				<path class="st0" d="M3.9,42.5l-0.2,0.5c0,0.1-0.2,0.2-0.3,0.1l-0.8-0.3c-0.1,0-0.2-0.2-0.1-0.3l0.2-0.5C2.7,42,2.8,42,2.9,42
					l0.8,0.3C3.8,42.3,3.9,42.4,3.9,42.5z M10.4,44.6l-0.2,0.5c0,0.1-0.2,0.2-0.3,0.1l-5.2-1.6c-0.1,0-0.2-0.2-0.1-0.3l0.2-0.5
					c0-0.1,0.2-0.2,0.3-0.1l5.2,1.6C10.4,44.3,10.4,44.4,10.4,44.6z"/>
				<path class="st0" d="M11.7,41.1c-0.6,1.5-1.8,1.8-3.3,1.2L7.7,42c-1.5-0.6-2.1-1.7-1.6-3.2c0.6-1.5,1.9-1.8,3.3-1.3l0.8,0.3
					C11.6,38.5,12.3,39.6,11.7,41.1z M9.1,38.4c-1-0.4-1.8-0.3-2.2,0.7c-0.4,0.9,0.1,1.6,1.1,2l0.8,0.3c1,0.4,1.8,0.3,2.2-0.7
					c0.4-0.9-0.1-1.6-1.1-2L9.1,38.4z"/>
				<path class="st0" d="M15,34.1l-0.2,0.5c-0.1,0.1-0.2,0.1-0.3,0.1L11.4,33c-1-0.5-1.4-0.3-1.8,0.4c-0.2,0.4-0.3,0.9-0.3,1.5
					l4,2.1c0.1,0.1,0.1,0.2,0.1,0.3l-0.3,0.5c-0.1,0.1-0.2,0.1-0.3,0.1l-4.8-2.6c-0.1-0.1-0.2-0.2-0.1-0.3l0.3-0.5
					c0.1-0.1,0.2-0.1,0.3-0.1l0.2,0.1c0-0.7,0.1-1.2,0.4-1.7c0.6-1.1,1.6-1.3,2.9-0.6l3.1,1.7C15,33.9,15.1,34,15,34.1z"/>
				<path class="st0" d="M17.9,29.7l-0.3,0.4c-0.1,0.1-0.2,0.1-0.3,0.1l-0.2-0.1c0,0.6-0.2,1.2-0.5,1.7c-0.5,0.8-1.3,1.2-2.4,0.5
					l-0.1-0.1c-1-0.7-1.1-1.5,0-3.1l0.4-0.7l-0.4-0.2c-0.7-0.5-1.2-0.4-1.6,0.3c-0.4,0.6-0.7,1-0.9,1.4c0,0,0,0,0,0
					c-0.1,0.1-0.1,0.1-0.3,0.1l-0.3-0.2c-0.1-0.1-0.1-0.2,0-0.3c0.2-0.4,0.4-0.8,0.8-1.5c0.8-1.2,1.8-1.3,2.8-0.6l3.1,2.1
					C18,29.5,18,29.6,17.9,29.7z M15.1,28.7l-0.4,0.7c-0.7,1.1-0.7,1.5-0.1,2l0.1,0.1c0.6,0.4,1,0.3,1.4-0.3
					c0.3-0.4,0.4-0.9,0.5-1.4L15.1,28.7z"/>
				<path class="st0" d="M19.3,27.9L19,28.4c-0.1,0.1-0.2,0.1-0.3,0l-6-4.8c-0.1-0.1-0.1-0.2,0-0.3l0.4-0.4c0.1-0.1,0.2-0.1,0.3,0
					l6,4.8C19.4,27.7,19.4,27.8,19.3,27.9z"/>
				<path class="st0" d="M24,23c-1.2,1.1-2.8,1.3-4.4-0.5l-0.9-1c-1.6-1.7-1.4-3.3-0.2-4.5c1.2-1.2,2.8-1.3,4.4,0.5l0.9,1
					C25.5,20.3,25.3,21.9,24,23z M22.2,18.2c-1.2-1.3-2.2-1.3-3.1-0.5c-0.9,0.8-0.9,1.8,0.3,3.1l0.9,1c1.2,1.3,2.2,1.3,3.1,0.5
					c0.9-0.8,0.9-1.8-0.3-3.1L22.2,18.2z"/>
				<path class="st0" d="M25.8,14.7c-0.4,0.3-0.7,0.7-0.9,1.3l2.7,3.6c0.1,0.1,0.1,0.2,0,0.3l-0.4,0.3c-0.1,0.1-0.2,0-0.3,0
					l-3.3-4.3c-0.1-0.1-0.1-0.2,0-0.3l0.4-0.3c0.1-0.1,0.2-0.1,0.3,0l0.1,0.2c0.2-0.6,0.5-1,0.9-1.3c0.1-0.1,0.2-0.1,0.3,0l0.3,0.3
					C25.9,14.5,25.9,14.6,25.8,14.7z"/>
				<path class="st0" d="M30.7,11.5l-0.3,0.3c0.3,0.1,0.6,0.2,0.9,0.7l0,0.1c0.6,1,0.4,1.9-1,2.8c-0.5,0.3-0.8,0.4-1.2,0.5
					c-0.1,0.2-0.1,0.3,0,0.5c0.1,0.2,0.2,0.2,0.5,0.1l1.6-0.5c1-0.3,2-0.6,2.6,0.2l0,0.1c0.6,0.9,0.3,1.8-1.2,2.7
					c-1.4,0.9-2.4,0.8-3-0.1l-0.1-0.1c-0.3-0.5-0.3-1.1-0.2-1.5l-0.1,0c-0.4,0.1-0.7-0.2-0.9-0.4l0,0c-0.2-0.2-0.2-0.6,0-0.9
					c-0.4-0.1-0.8-0.3-1.1-0.8l0-0.1c-0.5-0.8-0.6-1.9,1-2.9l2-1.3c0.1-0.1,0.3,0,0.3,0.1l0.1,0.2C30.8,11.3,30.8,11.4,30.7,11.5z
					 M30.5,13c-0.3-0.5-0.9-0.8-1.8-0.2c-1,0.6-0.9,1.2-0.6,1.8l0,0.1c0.3,0.4,0.8,0.8,1.8,0.1C30.9,14.2,30.9,13.6,30.5,13L30.5,13
					z M32.9,16.7c-0.2-0.4-0.6-0.3-1.6,0l-1.2,0.4c-0.1,0.4-0.2,0.7,0.1,1.2l0.1,0.1c0.3,0.5,0.8,0.6,1.8,0
					C33.2,17.7,33.3,17.2,32.9,16.7L32.9,16.7z"/>
				<path class="st0" d="M37.8,13.7l-0.4,0.2c-0.1,0.1-0.2,0-0.3-0.1L37,13.6c-0.3,0.5-0.7,0.9-1.3,1.2c-0.8,0.4-1.7,0.4-2.3-0.8
					l-0.1-0.1c-0.5-1-0.2-1.9,1.6-2.7l0.7-0.4l-0.2-0.4c-0.4-0.8-0.8-1-1.6-0.6c-0.6,0.3-1.1,0.6-1.4,0.8c0,0,0,0-0.1,0
					c-0.1,0-0.2,0.1-0.2-0.1L32,10.3c-0.1-0.1,0-0.2,0.1-0.3c0.4-0.3,0.8-0.5,1.4-0.9c1.3-0.7,2.2-0.3,2.8,0.9l1.7,3.4
					C38,13.5,37.9,13.6,37.8,13.7z M35.9,11.4l-0.7,0.3c-1.2,0.6-1.3,1-1,1.7l0.1,0.1c0.3,0.7,0.8,0.7,1.3,0.4
					c0.4-0.2,0.8-0.5,1.1-1L35.9,11.4z"/>
				<path class="st0" d="M43.2,11.6l-0.5,0.2c-0.1,0-0.2,0-0.3-0.1l-1.2-3.3c-0.4-1-0.8-1.2-1.6-0.9c-0.4,0.2-0.8,0.5-1.2,0.9
					l1.5,4.3c0,0.1,0,0.2-0.1,0.3L39.3,13c-0.1,0-0.2,0-0.3-0.1l-1.9-5.2c0-0.1,0-0.2,0.1-0.3l0.5-0.2c0.1,0,0.2,0,0.3,0.1l0.1,0.2
					c0.4-0.5,0.8-0.8,1.4-1c1.2-0.4,2,0.1,2.5,1.5l1.2,3.3C43.3,11.5,43.3,11.6,43.2,11.6z"/>
				<path class="st0" d="M43.6,4.4l-0.5,0.1c-0.1,0-0.2,0-0.3-0.2l-0.2-0.8c0-0.1,0-0.2,0.2-0.3l0.5-0.1c0.1,0,0.2,0,0.3,0.2
					l0.2,0.8C43.8,4.3,43.7,4.4,43.6,4.4z M45.4,11l-0.5,0.1c-0.1,0-0.2,0-0.3-0.2l-1.4-5.3c0-0.1,0-0.2,0.2-0.3l0.5-0.1
					c0.1,0,0.2,0,0.3,0.2l1.4,5.3C45.6,10.9,45.5,11,45.4,11z"/>
				<path class="st0" d="M50.5,9.9l-3.2,0.6c-0.5,0.1-0.7-0.2-0.8-0.5l0-0.2c-0.1-0.3,0-0.5,0.1-0.7l2.1-3.9c0,0,0-0.1,0-0.1
					c0,0,0-0.1-0.1-0.1L46,5.6c-0.1,0-0.2-0.1-0.3-0.2L45.7,5c0-0.1,0.1-0.2,0.2-0.3L49,4.2c0.4-0.1,0.6,0.1,0.7,0.4l0.1,0.3
					c0,0.2,0,0.4-0.1,0.6l-2.1,4c0,0.1,0,0.1,0,0.1c0,0.1,0,0.1,0.1,0.1l2.8-0.5c0.1,0,0.2,0.1,0.3,0.2l0.1,0.4
					C50.7,9.8,50.6,9.9,50.5,9.9z"/>
				<path class="st0" d="M55.6,9.4l-0.5,0c-0.1,0-0.2-0.1-0.2-0.2l0-0.2c-0.5,0.3-1,0.6-1.6,0.7c-0.9,0.1-1.8-0.2-1.9-1.6l0-0.1
					c-0.1-1.2,0.5-1.8,2.4-2l0.8-0.1l0-0.4c-0.1-0.9-0.4-1.2-1.3-1.1c-0.7,0.1-1.2,0.2-1.6,0.2c0,0,0,0-0.1,0c-0.1,0-0.2,0-0.2-0.2
					l0-0.4c0-0.1,0.1-0.2,0.2-0.2c0.4-0.1,0.9-0.2,1.6-0.3c1.5-0.1,2.2,0.6,2.3,1.8l0.3,3.7C55.8,9.3,55.7,9.4,55.6,9.4z M54.6,6.6
					l-0.8,0.1c-1.3,0.1-1.6,0.4-1.5,1.2l0,0.1c0.1,0.8,0.5,0.9,1.1,0.9c0.5,0,0.9-0.2,1.4-0.6L54.6,6.6z"/>
				<path class="st0" d="M59.7,9.3c-0.2,0-0.5,0.1-0.7,0.1c-1,0-1.5-0.2-1.5-1.4l-0.1-3.8l-1-0.1c-0.1,0-0.2-0.1-0.2-0.2l0-0.3
					c0-0.1,0.1-0.2,0.2-0.2l1,0l0-1.1c0-0.1,0.1-0.2,0.2-0.2l0.6-0.1c0,0,0,0,0,0c0.1,0,0.2,0.1,0.2,0.2l0,1.2l1.2,0
					c0.1,0,0.2,0.1,0.2,0.2l0,0.4c0,0.1-0.1,0.2-0.2,0.2l-1.2,0L58.4,8c0,0.6,0.2,0.7,0.6,0.7l0.6,0c0.2,0,0.2,0,0.2,0.1l0,0.4
					C59.9,9.2,59.8,9.3,59.7,9.3z"/>
				<path class="st0" d="M61.5,9.4l-0.5,0c-0.1,0-0.2-0.1-0.2-0.2l0.3-5.5c0-0.1,0.1-0.2,0.2-0.2l0.5,0c0.1,0,0.2,0.1,0.2,0.2
					l-0.3,5.5C61.8,9.3,61.7,9.4,61.5,9.4z M62,2.6l-0.5,0c-0.1,0-0.2-0.1-0.2-0.2l0-0.9c0-0.1,0.1-0.2,0.2-0.2l0.6,0
					c0.1,0,0.2,0.1,0.2,0.2l-0.1,0.9C62.2,2.5,62.1,2.6,62,2.6z"/>
				<path class="st0" d="M65.2,9.9c-1.6-0.2-2.2-1.4-2-2.9l0.1-0.8c0.2-1.6,1.2-2.5,2.7-2.3c1.6,0.2,2.2,1.4,2,2.9L68,7.6
					C67.8,9.2,66.8,10.1,65.2,9.9z M67.1,6.7c0.1-1.1-0.2-1.8-1.2-2c-1-0.1-1.5,0.5-1.7,1.6l-0.1,0.8c-0.1,1.1,0.2,1.8,1.2,2
					c1,0.1,1.5-0.5,1.7-1.6L67.1,6.7z"/>
				<path class="st0" d="M72.8,11.4l-0.5-0.1c-0.1,0-0.2-0.1-0.2-0.3L73,7.6c0.3-1.1,0-1.5-0.8-1.7c-0.4-0.1-1-0.1-1.5,0.1l-1.1,4.4
					c0,0.1-0.1,0.2-0.3,0.2l-0.5-0.1c-0.1,0-0.2-0.1-0.1-0.3L70,4.8c0-0.1,0.1-0.2,0.3-0.2l0.5,0.1c0.1,0,0.2,0.1,0.1,0.3l0,0.2
					C71.5,5,72,5,72.7,5.2c1.3,0.3,1.6,1.2,1.3,2.6L73,11.2C73,11.3,72.9,11.4,72.8,11.4z"/>
				<path class="st0" d="M81.9,6.9l-0.5-0.2c-0.5-0.2-0.7-0.1-0.9,0.4l-0.3,0.7l1,0.4c0.1,0,0.2,0.2,0.1,0.3l-0.2,0.4
					C81.2,9,81.1,9,81,9l-1-0.4l-1.9,4.5c0,0.1-0.2,0.2-0.3,0.1L77.3,13c-0.1,0-0.2-0.2-0.1-0.3l1.9-4.5l-0.9-0.5
					C78,7.6,78,7.5,78,7.4l0.1-0.3c0-0.1,0.2-0.1,0.3-0.1l1,0.4l0.3-0.7c0.4-1.1,1.1-1.2,2-0.8c0.3,0.1,0.4,0.2,0.5,0.3
					c0.1,0.1,0.2,0.1,0.1,0.2l-0.1,0.3C82.1,6.9,82,6.9,81.9,6.9z"/>
				<path class="st0" d="M81.6,15.1c-1.4-0.7-1.6-2-0.9-3.4l0.4-0.7C81.9,9.6,83,9,84.4,9.7c1.4,0.7,1.6,2,0.9,3.4L85,13.9
					C84.2,15.3,83,15.8,81.6,15.1z M84.5,12.7c0.5-1,0.4-1.8-0.5-2.3c-0.9-0.5-1.6-0.1-2.1,0.9l-0.4,0.7c-0.5,1-0.4,1.8,0.4,2.3
					c0.9,0.5,1.6,0.1,2.1-0.9L84.5,12.7z"/>
				<path class="st0" d="M89.5,13.7c-0.4-0.3-0.9-0.4-1.5-0.4L85.6,17c-0.1,0.1-0.2,0.1-0.3,0.1l-0.4-0.3c-0.1-0.1-0.1-0.2-0.1-0.3
					l3-4.6c0.1-0.1,0.2-0.1,0.3-0.1l0.4,0.3c0.1,0.1,0.1,0.2,0.1,0.3l-0.1,0.2c0.7,0,1.1,0.1,1.5,0.4c0.1,0.1,0.2,0.2,0.1,0.3
					l-0.2,0.4C89.7,13.8,89.6,13.8,89.5,13.7z"/>
				<path class="st0" d="M90.9,21.4c-0.6-0.5-0.9-0.9-1.3-1.3c-0.1-0.1-0.1-0.2,0-0.3l0.3-0.3c0.1-0.1,0.2-0.1,0.3,0c0,0,0,0,0,0
					c0.3,0.4,0.9,0.9,1.3,1.2c1,0.8,1.6,0.7,2.1,0.1c0.4-0.4,0.3-0.8,0-1.9l-0.4-1.2c-0.4-1.1-0.4-1.8,0.2-2.5
					c0.8-1,1.9-0.8,3.2,0.2c0.5,0.4,1.1,1,1.3,1.3c0.1,0.1,0.1,0.2,0,0.3l-0.3,0.3c-0.1,0.1-0.2,0.1-0.2,0c0,0,0,0,0,0
					c-0.3-0.3-0.9-0.8-1.4-1.3c-0.8-0.7-1.4-0.9-1.9-0.3c-0.3,0.4-0.3,0.8,0,1.8l0.4,1.1c0.5,1.4,0.4,2.1-0.2,2.8
					C93.7,22.3,92.5,22.8,90.9,21.4z"/>
				<path class="st0" d="M95.5,25.6c-0.2-0.1-0.4-0.3-0.5-0.5c-0.7-0.7-0.8-1.2,0-2l2.7-2.6L97,19.7c-0.1-0.1-0.1-0.2,0-0.3l0.2-0.2
					c0.1-0.1,0.2-0.1,0.3,0l0.7,0.7l0.8-0.7c0.1-0.1,0.2-0.1,0.3,0l0.5,0.3c0,0,0,0,0,0c0.1,0.1,0.1,0.2,0,0.2l-0.8,0.8l0.8,0.8
					c0.1,0.1,0.1,0.2,0,0.3L99.4,22c-0.1,0.1-0.2,0.1-0.3,0l-0.8-0.8l-2.7,2.6c-0.4,0.4-0.4,0.6-0.1,0.9l0.4,0.4
					c0.1,0.1,0.1,0.2,0,0.3l-0.3,0.3C95.7,25.7,95.6,25.7,95.5,25.6z"/>
				<path class="st0" d="M98.6,29.3L98.3,29c-0.1-0.1-0.1-0.2,0-0.3l0.2-0.1c-0.6-0.2-1.1-0.5-1.5-1c-0.6-0.7-0.8-1.6,0.2-2.5
					l0.1-0.1c0.9-0.7,1.8-0.6,3,0.9l0.5,0.6l0.3-0.3c0.7-0.6,0.7-1,0.2-1.7c-0.4-0.5-0.8-0.9-1.1-1.2c0,0,0,0,0,0
					c-0.1-0.1-0.1-0.2,0-0.3l0.3-0.2c0.1-0.1,0.2-0.1,0.3,0c0.3,0.3,0.7,0.6,1.2,1.2c0.9,1.2,0.7,2.1-0.2,2.9l-2.9,2.4
					C98.8,29.5,98.7,29.4,98.6,29.3z M100.3,27l-0.5-0.6c-0.8-1-1.3-1.1-1.9-0.6l-0.1,0.1c-0.6,0.5-0.5,0.9-0.1,1.4
					c0.3,0.4,0.7,0.6,1.3,0.9L100.3,27z"/>
				<path class="st0" d="M101.7,34l-0.3-0.4c-0.1-0.1,0-0.2,0.1-0.3l3-1.9c0.9-0.6,1-1.1,0.5-1.8c-0.2-0.4-0.7-0.7-1.1-1l-3.8,2.5
					c-0.1,0.1-0.2,0-0.3-0.1l-0.3-0.4c-0.1-0.1,0-0.2,0.1-0.3l4.6-3c0.1-0.1,0.2,0,0.3,0.1l0.3,0.4c0.1,0.1,0,0.2-0.1,0.3l-0.2,0.1
					c0.6,0.3,1,0.6,1.3,1.2c0.7,1.1,0.3,2-0.9,2.8l-3,1.9C101.9,34.2,101.8,34.1,101.7,34z"/>
				<path class="st0" d="M104.4,38.9c-0.4-0.5-0.8-1.1-1-1.7c-0.7-1.4-0.1-2.6,1.3-3.3l0.7-0.3c1.5-0.8,2.7-0.5,3.4,0.9
					c0.2,0.3,0.3,0.8,0.5,1.2l1.8-0.9c0.1,0,0.2,0,0.3,0.1l0.2,0.5c0,0.1,0,0.2-0.1,0.3l-6.7,3.4C104.6,39,104.5,39,104.4,38.9z
					 M108.5,36c-0.1-0.3-0.3-0.9-0.5-1.2c-0.5-0.9-1.2-1-2.2-0.4l-0.7,0.3c-1,0.5-1.5,1.1-1,2.1c0.2,0.3,0.4,0.8,0.6,1.1L108.5,36z"
					/>
				<path class="st0" d="M106.2,43.9l-0.2-0.5c0-0.1,0-0.2,0.1-0.3l0.2-0.1c-0.5-0.4-0.9-0.8-1.1-1.4c-0.3-0.9-0.2-1.8,1-2.3l0.1,0
					c1.1-0.4,1.9,0,2.5,1.8l0.3,0.7l0.4-0.2c0.8-0.3,1-0.7,0.7-1.5c-0.2-0.7-0.5-1.1-0.7-1.5c0,0,0,0,0-0.1c0-0.1,0-0.2,0.1-0.2
					l0.4-0.1c0.1,0,0.2,0,0.3,0.1c0.2,0.4,0.5,0.8,0.7,1.5c0.5,1.4,0,2.2-1.2,2.7l-3.5,1.3C106.4,44.1,106.2,44,106.2,43.9z
					 M108.6,42.2l-0.3-0.7c-0.5-1.2-0.8-1.4-1.6-1.2l-0.1,0c-0.7,0.3-0.8,0.7-0.6,1.3c0.2,0.5,0.5,0.8,0.9,1.2L108.6,42.2z"/>
				<path class="st0" d="M112.2,46.2c-0.1-0.5-0.4-0.9-0.8-1.3l-4.3,1.2c-0.1,0-0.2,0-0.3-0.2l-0.1-0.5c0-0.1,0-0.2,0.2-0.3l5.3-1.5
					c0.1,0,0.2,0,0.3,0.1l0.1,0.5c0,0.1,0,0.2-0.2,0.3l-0.2,0.1c0.5,0.4,0.8,0.9,0.9,1.3c0,0.1,0,0.2-0.1,0.3l-0.4,0.1
					C112.3,46.4,112.3,46.3,112.2,46.2z"/>
				<path class="st0" d="M108.3,52.3c-0.2-0.6-0.4-1.3-0.5-1.9c-0.3-1.6,0.6-2.5,2.2-2.8l0.8-0.1c1.7-0.3,2.7,0.3,3,1.8
					c0.1,0.3,0.1,0.8,0.1,1.3l2-0.4c0.1,0,0.2,0,0.2,0.2l0.1,0.5c0,0.1,0,0.2-0.2,0.2l-7.4,1.4C108.4,52.5,108.3,52.5,108.3,52.3z
					 M113,50.7c0-0.4-0.1-0.9-0.2-1.3c-0.2-1-0.9-1.3-2-1l-0.8,0.1c-1.2,0.2-1.7,0.7-1.5,1.7c0.1,0.4,0.2,0.9,0.3,1.2L113,50.7z"/>
				<path class="st0" d="M108.4,54.6l-0.1-0.5c0-0.1,0.1-0.2,0.2-0.2l5.5-0.6c0.1,0,0.2,0.1,0.2,0.2l0.1,0.5c0,0.1-0.1,0.2-0.2,0.2
					l-5.4,0.6C108.5,54.8,108.4,54.7,108.4,54.6z M115.2,53.9l-0.1-0.5c0-0.1,0.1-0.2,0.2-0.2l0.9-0.1c0.1,0,0.2,0.1,0.2,0.2
					l0.1,0.5c0,0.1-0.1,0.2-0.2,0.2l-0.9,0.1C115.4,54.1,115.2,54,115.2,53.9z"/>
				<path class="st0" d="M108.7,59.8l-0.1-3.2c0-0.5,0.3-0.7,0.6-0.7l0.2,0c0.3,0,0.5,0.1,0.7,0.2l3.5,2.7c0,0,0.1,0,0.1,0
					c0,0,0.1,0,0.1-0.1l-0.1-2.6c0-0.1,0.1-0.2,0.2-0.2l0.4,0c0.1,0,0.2,0.1,0.2,0.2l0.1,3.2c0,0.4-0.2,0.6-0.5,0.6l-0.3,0
					c-0.2,0-0.4-0.1-0.6-0.2l-3.6-2.7c0,0-0.1-0.1-0.1-0.1c0,0-0.1,0-0.1,0.1l0.1,2.8c0,0.1-0.1,0.2-0.2,0.2l-0.4,0
					C108.8,60,108.7,59.9,108.7,59.8z"/>
				<path class="st0" d="M108.4,65l0-0.5c0-0.1,0.1-0.2,0.2-0.2l0.2,0c-0.3-0.5-0.4-1.1-0.4-1.7c0.1-0.9,0.5-1.7,1.9-1.6l0.1,0
					c1.2,0.1,1.7,0.8,1.6,2.7l-0.1,0.8l0.4,0c0.9,0.1,1.2-0.2,1.3-1.1c0.1-0.7,0-1.2,0-1.6c0,0,0,0,0-0.1c0-0.1,0-0.2,0.2-0.2l0.4,0
					c0.1,0,0.2,0.1,0.2,0.2c0,0.4,0.1,0.9,0,1.7c-0.1,1.5-0.9,2-2.2,1.9l-3.7-0.3C108.5,65.2,108.4,65.1,108.4,65z M111.3,64.4
					l0.1-0.8c0.1-1.3-0.2-1.7-0.9-1.7l-0.1,0c-0.8-0.1-1,0.3-1,0.9c0,0.5,0.1,0.9,0.3,1.5L111.3,64.4z"/>
				<path class="st0" d="M107.8,69c0-0.2,0-0.5,0.1-0.7c0.2-1,0.5-1.4,1.7-1.2l3.7,0.6l0.3-1c0-0.1,0.1-0.2,0.2-0.2l0.3,0
					c0.1,0,0.2,0.1,0.2,0.2l-0.2,1l1,0.2c0.1,0,0.2,0.1,0.2,0.2v0.6c0,0,0,0,0,0c0,0.1-0.1,0.1-0.2,0.1l-1.2-0.2l-0.2,1.1
					c0,0.1-0.1,0.2-0.2,0.2L113,70c-0.1,0-0.2-0.1-0.2-0.2l0.2-1.1l-3.7-0.6c-0.6-0.1-0.7,0-0.8,0.5l-0.1,0.6c0,0.2-0.1,0.2-0.2,0.2
					l-0.4-0.1C107.8,69.2,107.8,69.1,107.8,69z"/>
				<path class="st0" d="M107.4,70.8l0.1-0.5c0-0.1,0.1-0.2,0.3-0.2l5.4,1.2c0.1,0,0.2,0.1,0.2,0.3l-0.1,0.5c0,0.1-0.1,0.2-0.3,0.2
					l-5.4-1.2C107.5,71.1,107.4,70.9,107.4,70.8z M114.1,72.3l0.1-0.5c0-0.1,0.1-0.2,0.3-0.2l0.8,0.2c0.1,0,0.2,0.1,0.2,0.3
					l-0.1,0.5c0,0.1-0.1,0.2-0.3,0.2l-0.8-0.2C114.1,72.6,114.1,72.4,114.1,72.3z"/>
				<path class="st0" d="M106.4,74.4c0.5-1.5,1.7-2,3.2-1.5l0.8,0.2c1.5,0.5,2.3,1.5,1.8,3c-0.5,1.5-1.7,2-3.2,1.5l-0.8-0.2
					C106.7,77,105.9,75.9,106.4,74.4z M109.2,76.8c1,0.3,1.8,0.1,2.1-0.9c0.3-1-0.2-1.6-1.3-1.9l-0.8-0.2c-1-0.3-1.8-0.1-2.1,0.8
					c-0.3,1,0.2,1.6,1.3,1.9L109.2,76.8z"/>
				<path class="st0" d="M103.7,81.5l0.2-0.5c0-0.1,0.2-0.2,0.3-0.1l3.2,1.4c1,0.4,1.4,0.2,1.8-0.5c0.2-0.4,0.2-0.9,0.2-1.5
					l-4.2-1.8c-0.1,0-0.2-0.2-0.1-0.3l0.2-0.5c0-0.1,0.2-0.1,0.3-0.1l5,2.2c0.1,0,0.2,0.2,0.1,0.3l-0.2,0.5c0,0.1-0.2,0.2-0.3,0.1
					l-0.2-0.1c0.1,0.7,0,1.2-0.2,1.8c-0.5,1.2-1.5,1.4-2.8,0.8l-3.2-1.4C103.7,81.8,103.6,81.6,103.7,81.5z"/>
			</g>
			<g>
				<g>
					<path class="st0" d="M46.3,115.8c-1.2,0-2.1-0.1-2.7-0.3c-0.2-0.1-0.3-0.1-0.3-0.3v-1.2c0-0.2,0.1-0.3,0.2-0.3c0,0,0,0,0.1,0
						c0.7,0.1,1.7,0.2,2.5,0.2c1.2,0,1.7-0.5,1.7-2v-0.1c-0.4,0.1-1,0.2-1.6,0.2c-1.8,0-3.4-0.8-3.4-3.1v-0.1c0-2.1,1.3-3.5,3.6-3.5
						c2.2,0,3.7,1.3,3.7,4v2.1C50.1,114.6,48.6,115.8,46.3,115.8z M47.8,109.4c0-1.9-0.6-2.2-1.4-2.2c-0.8,0-1.3,0.4-1.3,1.7v0.1
						c0,1.1,0.7,1.4,1.5,1.4c0.4,0,0.9-0.1,1.2-0.1V109.4z"/>
					<path class="st0" d="M55.1,115.8c-2.3,0-3.7-1.3-3.7-4.6V110c0-3.3,1.4-4.6,3.7-4.6c2.3,0,3.7,1.3,3.7,4.6v1.2
						C58.8,114.5,57.5,115.8,55.1,115.8z M56.5,110c0-2.2-0.6-2.7-1.4-2.7c-0.8,0-1.3,0.5-1.3,2.7v1.2c0,2.2,0.6,2.7,1.3,2.7
						c0.8,0,1.4-0.5,1.4-2.7V110z"/>
					<path class="st0" d="M63.8,115.8c-2.3,0-3.7-1.3-3.7-4.6V110c0-3.3,1.4-4.6,3.7-4.6c2.3,0,3.7,1.3,3.7,4.6v1.2
						C67.5,114.5,66.2,115.8,63.8,115.8z M65.2,110c0-2.2-0.6-2.7-1.4-2.7c-0.8,0-1.3,0.5-1.3,2.7v1.2c0,2.2,0.6,2.7,1.3,2.7
						c0.8,0,1.4-0.5,1.4-2.7V110z"/>
					<path class="st0" d="M71.6,113.8v-5.9l-1.8,0.8c-0.1,0-0.1,0-0.2,0c-0.1,0-0.2-0.1-0.2-0.2v-1.6c0-0.1,0-0.2,0.1-0.2l2.5-1.2
						c0.1,0,0.2-0.1,0.3-0.1h1.2c0.2,0,0.3,0.1,0.3,0.3v8h1.8c0.2,0,0.3,0.1,0.3,0.3v1.4c0,0.2-0.1,0.3-0.3,0.3h-6
						c-0.2,0-0.3-0.1-0.3-0.3V114c0-0.2,0.1-0.3,0.3-0.3H71.6z"/>
				</g>
			</g>
		</g>
	</g>
</g>
</svg>
